<svg width="600" height="600" viewBox="0 0 600 600" fill="none" xmlns="http://www.w3.org/2000/svg">
<ellipse cx="300.481" cy="300" rx="201.6" ry="201.923" fill="white"/>
<path fill-rule="evenodd" clip-rule="evenodd" d="M293.469 411.268C294.35 411.273 333.152 413.871 336.128 402.175C339.62 388.457 353.967 319.867 355.467 312.697C358.446 298.45 337.675 301.895 330.507 269.08C313.267 190.153 410.807 141.031 423.976 233.635C425.595 245.019 421.116 277.701 404.911 292.475C385.497 310.173 375.413 304.98 373.83 312.618C373.5 314.211 362.516 388.063 363.263 390.077C365.298 395.561 387.909 372.879 397.762 356.28C409.045 337.274 410.987 328.868 430.082 340.262C440.463 346.457 446.492 364.372 432.226 362.562C415.519 360.442 424.632 385.221 372.424 418.105C348.365 433.26 249.604 473.669 181.228 370.54C176.074 362.768 175.846 360.936 166.596 362.697C149.732 365.906 169.856 326.235 191.63 338.821C203.231 345.526 193.07 354.645 226.934 384.261C236.623 392.736 237.762 391.471 238.126 390.515C238.319 390.006 229.963 313.295 225.751 309.619C212.904 298.412 176.783 310.299 173.392 206.748C172.682 185.049 186.675 189.187 188.249 196.464C191.178 210.02 187.294 266.863 209.111 261.02C230.929 255.177 196.68 188.038 216.176 184.351C235.671 180.664 226.009 259.599 249.287 253.365C272.566 247.131 226.859 177.273 249.511 178.578C258.265 179.083 264.232 203.978 269.549 227.014C284.065 289.914 244.119 300.894 245.189 309.373C245.404 311.07 264.776 402.999 266.654 405.283C270.492 409.958 291.274 411.143 293.469 411.268Z" fill="#EA4D19"/>
</svg>
