<svg width="600" height="600" viewBox="0 0 600 600" fill="none" xmlns="http://www.w3.org/2000/svg">
<g clip-path="url(#clip0_69_833)">
<path d="M144.856 135.917C140.521 140.086 136.145 142.825 131.729 144.134C127.349 145.408 123.081 145.412 118.926 144.145C114.807 142.844 111.007 140.382 107.527 136.757C104.082 133.168 101.724 129.182 100.454 124.798C99.1844 120.415 99.223 115.935 100.57 111.359C101.883 106.747 104.742 102.322 109.148 98.0847C110.891 96.3405 112.751 94.8252 114.728 93.5388C116.705 92.2524 118.693 91.2626 120.693 90.5695C122.694 89.8066 124.616 89.4954 126.46 89.6361C127.643 89.7289 128.752 89.9946 129.788 90.4333C130.826 90.8023 131.771 91.4309 132.624 92.3193C133.989 93.7407 134.62 95.2524 134.518 96.8543C134.451 98.4221 133.672 99.9236 132.179 101.359C131.149 102.35 130.055 103.026 128.898 103.387C127.741 103.748 126.568 104.056 125.378 104.312C124.155 104.532 122.875 104.908 121.541 105.44C120.242 105.938 118.899 106.853 117.513 108.186C115.737 109.894 114.585 111.72 114.058 113.662C113.532 115.535 113.649 117.507 114.408 119.579C115.133 121.616 116.468 123.647 118.413 125.672C120.391 127.733 122.383 129.167 124.387 129.973C126.393 130.71 128.376 130.818 130.338 130.299C132.335 129.745 134.275 128.562 136.158 126.751C138.041 124.94 139.121 123.218 139.398 121.584C139.641 119.915 139.183 118.442 138.025 117.164L131.096 123.828L123.215 115.619L141.496 98.0367C149.125 104.915 153.138 111.479 153.534 117.728C153.931 123.908 151.038 129.971 144.856 135.917ZM165.35 115.862L145.361 84.7816L156.857 77.37L176.846 108.45L165.35 115.862ZM168.89 96.0802L160.447 84.7285C159.561 82.0753 159.361 79.6243 159.849 77.3754C160.31 75.0851 161.514 73.3123 163.461 72.057C164.538 71.3626 165.713 70.9569 166.985 70.8399C168.273 70.6547 169.54 70.8932 170.786 71.5553C172.047 72.1492 173.21 73.275 174.277 74.9326C175.689 77.1289 176.169 79.1056 175.717 80.8628C175.306 82.5932 174.376 83.9258 172.926 84.8606C171.973 85.4749 171.086 85.8713 170.263 86.05C169.455 86.1606 168.719 86.4295 168.057 86.8569C166.938 87.578 166.421 88.7324 166.504 90.32C166.602 91.8395 167.398 93.7596 168.89 96.0802ZM184.553 82.3169C183.013 78.6875 182.424 75.216 182.785 71.9025C183.192 68.5697 184.483 65.5566 186.659 62.8631C188.881 60.1503 191.964 57.9545 195.909 56.2757C199.763 54.6355 203.404 53.9431 206.831 54.1985C210.239 54.4086 213.295 55.4916 215.998 57.4476C218.701 59.4035 220.842 62.2416 222.42 65.9618C223.921 69.5005 224.5 72.9493 224.158 76.3082C223.797 79.6217 222.506 82.6348 220.284 85.3476C218.108 88.0411 215.025 90.2369 211.034 91.935C207.271 93.5366 203.662 94.242 200.209 94.0513C196.737 93.8152 193.649 92.7191 190.946 90.7631C188.223 88.7618 186.092 85.9464 184.553 82.3169ZM197.787 76.6047C198.403 78.0565 199.159 79.2077 200.055 80.0582C200.996 80.8894 202.013 81.3939 203.106 81.5716C204.198 81.7494 205.266 81.6164 206.309 81.1726C207.442 80.6902 208.325 79.9935 208.955 79.0824C209.567 78.126 209.9 77.0199 209.957 75.7642C210.058 74.4892 209.782 73.0804 209.127 71.5379C208.512 70.0861 207.743 68.9673 206.821 68.1815C205.924 67.331 204.93 66.8168 203.838 66.6391C202.745 66.4613 201.655 66.6039 200.567 67.067C199.478 67.5302 198.606 68.2496 197.949 69.2253C197.319 70.1363 196.975 71.2197 196.919 72.4754C196.863 73.7312 197.152 75.1076 197.787 76.6047ZM252.62 78.6656C246.307 80.0087 241.341 79.5032 237.72 77.149C234.138 74.7364 231.765 70.7813 230.601 65.2839L226.422 45.5365L239.795 42.6913L243.959 62.3664C244.346 64.1988 245.052 65.5102 246.075 66.3003C247.137 67.032 248.487 67.2236 250.125 66.875C251.715 66.5366 252.847 65.817 253.521 64.7162C254.184 63.5672 254.322 62.0765 253.934 60.244L249.77 40.5689L263.07 37.7391L267.25 57.4865C268.413 62.984 267.847 67.5644 265.55 71.2279C263.243 74.8432 258.933 77.3224 252.62 78.6656ZM277.219 88.0164L276.58 36.2546L290.248 36.0748L290.887 87.8366L277.219 88.0164ZM288.797 44.2292C289.844 41.2571 291.442 38.9927 293.59 37.436C295.739 35.8793 298.241 35.0821 301.098 35.0445C304.004 35.0063 306.624 35.7361 308.958 37.2338C311.292 38.7315 313.142 40.9259 314.507 43.817C315.922 46.658 316.654 50.1244 316.705 54.216C316.753 58.1105 316.13 61.5207 314.836 64.4468C313.542 67.3728 311.698 69.6651 309.305 71.3236C306.911 72.9329 304.137 73.7582 300.985 73.7997C297.981 73.8392 295.485 73.1818 293.497 71.8274C291.559 70.4231 290.205 68.4687 289.435 65.9643L290.496 56.1879C290.512 57.4204 290.747 58.5266 291.202 59.5067C291.707 60.4369 292.381 61.1676 293.225 61.6988C294.118 62.2294 295.131 62.4873 296.264 62.4724C297.495 62.4562 298.55 62.1218 299.429 61.4693C300.357 60.8161 301.06 59.8947 301.538 58.7051C302.065 57.5149 302.319 56.1556 302.3 54.6274C302.281 53.0499 302.018 51.6975 301.511 50.5702C301.005 49.4428 300.28 48.5895 299.337 48.0103C298.393 47.3817 297.305 47.0755 296.074 47.0917C294.35 47.1144 292.978 47.7241 291.959 48.9209C290.939 50.1176 290.441 51.7019 290.465 53.6738L288.797 44.2292ZM342.395 76.3565L354.058 37.6937C355.055 34.3891 356.642 32.1123 358.819 30.8632C361.011 29.5668 363.474 29.3309 366.209 30.1554C368.048 30.7098 369.62 31.7243 370.924 33.199C372.29 34.6407 373.395 36.7763 374.239 39.6057L384.504 72.5962L378.314 71.1165L388.397 37.6937L401.977 41.7877L387.452 89.9392L373.517 85.7386L360.689 45.6409L366.122 46.8153L355.976 80.4505L342.395 76.3565ZM400.822 75.6144C402.739 72.1671 405.115 69.5676 407.949 67.8157C410.826 66.0878 413.994 65.2554 417.454 65.3185C420.956 65.4056 424.579 66.4912 428.323 68.5751C431.981 70.6112 434.76 73.0613 436.661 75.9253C438.587 78.7463 439.607 81.8256 439.723 85.1632C439.839 88.5009 438.915 91.9365 436.949 95.4699C435.08 98.831 432.716 101.409 429.858 103.204C427.024 104.956 423.855 105.788 420.353 105.701C416.894 105.638 413.271 104.552 409.484 102.445C405.912 100.456 403.142 98.0398 401.174 95.1949C399.23 92.3069 398.2 89.1941 398.084 85.8564C397.992 82.4757 398.904 79.0617 400.822 75.6144ZM413.445 82.5563C412.678 83.9352 412.234 85.24 412.113 86.4706C412.035 87.7252 412.262 88.8386 412.792 89.8108C413.322 90.783 414.082 91.5446 415.071 92.0955C416.147 92.6944 417.238 92.9628 418.343 92.9008C419.472 92.7958 420.549 92.3794 421.574 91.6518C422.642 90.9482 423.583 89.8638 424.398 88.3988C425.165 87.0198 425.575 85.7246 425.629 84.5132C425.75 83.2825 425.545 82.1811 425.015 81.2089C424.485 80.2367 423.704 79.4631 422.671 78.8882C421.638 78.3133 420.536 78.0664 419.363 78.1475C418.258 78.2095 417.193 78.6043 416.169 79.3319C415.144 80.0595 414.236 81.1343 413.445 82.5563ZM465.165 146.013L478.424 131.784C479.768 130.341 480.42 129.028 480.379 127.843C480.372 126.622 479.954 125.626 479.126 124.853C478.478 124.248 477.697 123.857 476.785 123.68C475.873 123.503 474.917 123.589 473.919 123.938C472.954 124.251 471.984 124.931 471.009 125.977L475.373 116.09C477.435 115.25 479.46 114.847 481.448 114.882C483.472 114.95 485.351 115.354 487.084 116.095C488.887 116.834 490.473 117.842 491.841 119.119C493.57 120.732 494.749 122.574 495.378 124.645C496.04 126.679 496.011 128.878 495.291 131.24C494.641 133.6 493.089 136.097 490.635 138.73L475.158 155.34L465.165 146.013ZM431.512 114.605L456.719 87.5533L466.712 96.8799L441.505 123.932L431.512 114.605ZM448.311 130.284L461.57 116.055C462.915 114.612 463.566 113.298 463.526 112.114C463.554 110.927 463.137 109.93 462.272 109.123C461.66 108.552 460.898 108.178 459.986 108.001C459.073 107.824 458.118 107.91 457.119 108.259C456.154 108.572 455.184 109.252 454.21 110.298L460.032 101.773C461.95 100.798 463.777 100.21 465.513 100.009C467.285 99.8421 468.965 100.062 470.555 100.668C472.214 101.272 473.745 102.23 475.15 103.541C476.914 105.188 478.11 107.012 478.737 109.013C479.399 111.047 479.352 113.229 478.596 115.558C477.874 117.851 476.302 120.296 473.883 122.893L458.305 139.611L448.311 130.284ZM503.264 182.844C501.412 179.589 500.806 176.531 501.447 173.67C502.13 170.784 503.97 168.487 506.967 166.777C510.049 165.019 512.983 164.594 515.767 165.502C518.552 166.409 520.87 168.491 522.722 171.746C524.573 175.001 525.191 178.08 524.575 180.984C523.959 183.889 522.109 186.22 519.027 187.978C516.03 189.687 513.106 190.079 510.254 189.152C507.445 188.202 505.115 186.099 503.264 182.844ZM518.597 247.435C517.142 241.6 516.947 236.441 518.012 231.956C519.09 227.52 521.212 223.812 524.379 220.834C527.558 217.903 531.585 215.827 536.46 214.605C541.287 213.396 545.917 213.329 550.349 214.403C554.781 215.478 558.645 217.736 561.94 221.179C565.284 224.609 567.695 229.29 569.174 235.22C569.818 237.599 570.205 239.967 570.336 242.322C570.466 244.678 570.334 246.896 569.939 248.977C569.603 251.093 568.916 252.917 567.875 254.448C567.206 255.428 566.423 256.26 565.527 256.942C564.69 257.659 563.674 258.168 562.48 258.467C560.568 258.946 558.943 258.744 557.606 257.859C556.28 257.023 555.366 255.6 554.866 253.591C554.52 252.205 554.478 250.919 554.742 249.735C555.005 248.551 555.322 247.38 555.693 246.22C556.112 245.048 556.423 243.75 556.627 242.327C556.842 240.952 556.718 239.332 556.252 237.467C555.656 235.075 554.647 233.169 553.226 231.746C551.865 230.36 550.097 229.481 547.923 229.111C545.797 228.73 543.371 228.88 540.647 229.562C537.875 230.257 535.641 231.274 533.944 232.614C532.306 233.99 531.224 235.658 530.698 237.619C530.183 239.628 530.242 241.9 530.874 244.435C531.506 246.97 532.461 248.763 533.739 249.815C535.065 250.854 536.57 251.189 538.254 250.817L535.929 241.492L546.969 238.725L553.105 263.331C543.343 266.539 535.655 266.763 530.041 264.003C524.487 261.279 520.672 255.756 518.597 247.435ZM525.775 275.192L562.67 273.267L563.371 286.929L526.475 288.854L525.775 275.192ZM541.16 288.088L555.205 286.393C557.946 286.941 560.169 287.985 561.876 289.525C563.632 291.062 564.569 292.988 564.688 295.302C564.754 296.582 564.52 297.804 563.988 298.967C563.508 300.177 562.67 301.159 561.476 301.912C560.333 302.712 558.778 303.164 556.81 303.266C554.202 303.402 552.25 302.838 550.952 301.572C549.656 300.357 548.964 298.887 548.876 297.164C548.818 296.031 548.916 295.064 549.171 294.26C549.478 293.504 549.611 292.732 549.57 291.944C549.502 290.615 548.759 289.592 547.341 288.876C545.975 288.207 543.915 287.944 541.16 288.088ZM545.287 308.543C549.199 309.013 552.501 310.229 555.191 312.191C557.875 314.202 559.841 316.822 561.089 320.05C562.33 323.328 562.694 327.096 562.18 331.355C561.678 335.516 560.461 339.02 558.53 341.866C556.647 344.719 554.185 346.832 551.142 348.204C548.098 349.577 544.572 350.022 540.562 349.541C536.747 349.082 533.47 347.869 530.731 345.902C528.041 343.94 526.075 341.32 524.833 338.042C523.586 334.813 523.222 331.045 523.742 326.738C524.233 322.675 525.422 319.192 527.31 316.291C529.247 313.395 531.737 311.261 534.781 309.888C537.873 308.521 541.375 308.073 545.287 308.543ZM543.632 322.87C542.067 322.682 540.693 322.765 539.509 323.119C538.319 323.523 537.375 324.154 536.676 325.014C535.977 325.873 535.559 326.866 535.423 327.992C535.276 329.216 535.439 330.328 535.914 331.328C536.437 332.335 537.229 333.175 538.288 333.848C539.342 334.571 540.701 335.032 542.363 335.232C543.928 335.42 545.281 335.309 546.422 334.9C547.606 334.545 548.547 333.938 549.246 333.079C549.945 332.219 550.366 331.202 550.508 330.027C550.65 328.853 550.462 327.737 549.944 326.682C549.469 325.682 548.702 324.844 547.643 324.171C546.583 323.497 545.246 323.064 543.632 322.87ZM514.487 369.423C516.474 363.277 519.39 359.218 523.236 357.248C527.114 355.34 531.724 355.249 537.067 356.975L556.258 363.176L552.05 376.196L532.928 370.018C531.147 369.442 529.659 369.402 528.464 369.897C527.301 370.454 526.461 371.53 525.946 373.125C525.445 374.673 525.504 376.014 526.121 377.146C526.786 378.293 528.008 379.155 529.789 379.73L548.91 385.908L544.725 398.857L525.533 392.657C520.19 390.931 516.505 388.16 514.478 384.344C512.497 380.543 512.5 375.569 514.487 369.423ZM494.101 386.153L539.323 411.241L532.688 423.208L487.467 398.12L494.101 386.153ZM526.335 417.907C528.393 420.289 529.564 422.799 529.847 425.438C530.13 428.076 529.579 430.645 528.192 433.147C526.782 435.691 524.847 437.606 522.388 438.893C519.93 440.179 517.107 440.699 513.92 440.454C510.753 440.275 507.382 439.195 503.807 437.212C500.405 435.324 497.756 433.093 495.86 430.519C493.965 427.945 492.892 425.207 492.642 422.306C492.436 419.428 493.097 416.609 494.627 413.849C496.086 411.219 497.896 409.375 500.058 408.319C502.239 407.331 504.608 407.122 507.163 407.694L515.116 413.459C514.04 412.862 512.963 412.518 511.887 412.429C510.829 412.406 509.86 412.63 508.98 413.1C508.076 413.614 507.349 414.366 506.799 415.358C506.202 416.436 505.968 417.519 506.097 418.605C506.203 419.735 506.653 420.803 507.448 421.807C508.218 422.855 509.271 423.75 510.606 424.49C511.984 425.255 513.288 425.696 514.518 425.814C515.748 425.933 516.848 425.726 517.819 425.193C518.833 424.684 519.639 423.891 520.237 422.813C521.074 421.303 521.226 419.809 520.694 418.33C520.163 416.851 519.036 415.634 517.313 414.678L526.335 417.907ZM471.859 448.584L499.596 477.882C501.967 480.386 503.153 482.894 503.154 485.405C503.189 487.951 502.17 490.209 500.095 492.176C498.7 493.499 497.039 494.362 495.111 494.764C493.182 495.236 490.781 495.138 487.907 494.468L454.19 487.035L458.55 482.39L482.528 507.717L472.227 517.488L437.682 481L448.251 470.975L489.407 479.704L485.688 483.843L461.557 458.355L471.859 448.584ZM443.411 499.741C445.437 503.122 446.5 506.478 446.601 509.809C446.659 513.166 445.796 516.329 444.013 519.297C442.187 522.291 439.437 524.893 435.761 527.101C432.17 529.259 428.66 530.449 425.23 530.67C421.826 530.934 418.649 530.285 415.702 528.722C412.754 527.159 410.241 524.645 408.164 521.18C406.188 517.883 405.138 514.548 405.012 511.175C404.911 507.843 405.774 504.681 407.6 501.687C409.383 498.718 412.134 496.117 415.851 493.883C419.358 491.776 422.834 490.578 426.281 490.288C429.753 490.041 432.963 490.699 435.911 492.262C438.884 493.867 441.384 496.36 443.411 499.741ZM431.091 507.23C430.281 505.878 429.373 504.842 428.368 504.124C427.321 503.431 426.244 503.072 425.137 503.048C424.03 503.023 422.991 503.302 422.019 503.886C420.963 504.521 420.186 505.333 419.687 506.323C419.214 507.354 419.036 508.496 419.154 509.747C419.23 511.024 419.698 512.381 420.559 513.818C421.37 515.17 422.286 516.171 423.308 516.822C424.313 517.54 425.369 517.912 426.476 517.936C427.582 517.961 428.643 517.669 429.657 517.06C430.671 516.45 431.435 515.617 431.951 514.56C432.45 513.571 432.64 512.45 432.522 511.199C432.404 509.948 431.927 508.625 431.091 507.23ZM350.329 520.557L356.06 539.136C356.641 541.02 357.456 542.239 358.503 542.791C359.564 543.391 360.636 543.524 361.719 543.188C362.566 542.926 363.294 542.443 363.901 541.738C364.509 541.034 364.911 540.162 365.105 539.121C365.314 538.128 365.208 536.948 364.787 535.582L371.183 544.282C370.884 546.49 370.225 548.448 369.205 550.157C368.138 551.881 366.852 553.311 365.347 554.448C363.809 555.647 362.145 556.523 360.357 557.077C358.097 557.777 355.914 557.885 353.805 557.403C351.712 556.968 349.82 555.851 348.131 554.053C346.409 552.316 345.018 549.728 343.958 546.29L337.268 524.602L350.329 520.557ZM394.314 506.934L405.21 542.257L392.148 546.302L381.253 510.979L394.314 506.934ZM372.357 513.734L378.088 532.314C378.669 534.198 379.483 535.416 380.53 535.969C381.545 536.584 382.617 536.716 383.747 536.366C384.547 536.118 385.251 535.642 385.859 534.938C386.466 534.234 386.868 533.362 387.062 532.321C387.272 531.327 387.166 530.148 386.744 528.782L391.234 538.072C391.124 540.221 390.723 542.1 390.033 543.707C389.296 545.328 388.268 546.678 386.951 547.757C385.601 548.897 384.008 549.752 382.173 550.32C379.866 551.035 377.69 551.167 375.643 550.717C373.55 550.282 371.682 549.158 370.039 547.345C368.412 545.579 367.075 543 366.029 539.609L359.296 517.78L372.357 513.734ZM299.423 535.331C303.167 535.34 306.119 536.334 308.28 538.312C310.44 540.339 311.514 543.078 311.503 546.529C311.49 550.079 310.397 552.837 308.223 554.803C306.049 556.769 303.09 557.748 299.347 557.738C295.603 557.728 292.626 556.734 290.416 554.756C288.206 552.779 287.108 550.015 287.12 546.465C287.131 543.014 288.249 540.281 290.473 538.265C292.696 536.299 295.68 535.321 299.423 535.331ZM235.836 516.425C241.613 518.079 246.174 520.488 249.521 523.651C252.819 526.801 254.964 530.492 255.954 534.725C256.897 538.944 256.676 543.471 255.291 548.306C253.919 553.093 251.658 557.139 248.509 560.443C245.359 563.747 241.47 565.968 236.841 567.104C232.198 568.288 226.941 568.04 221.069 566.359C218.688 565.729 216.446 564.882 214.343 563.818C212.24 562.755 210.387 561.532 208.785 560.15C207.122 558.802 205.888 557.295 205.085 555.629C204.572 554.559 204.245 553.465 204.104 552.348C203.902 551.264 203.971 550.13 204.31 548.945C204.853 547.049 205.843 545.742 207.278 545.024C208.665 544.293 210.354 544.212 212.342 544.782C213.716 545.175 214.848 545.781 215.741 546.601C216.633 547.42 217.488 548.281 218.306 549.181C219.11 550.13 220.077 551.048 221.206 551.935C222.287 552.809 223.752 553.51 225.598 554.039C227.966 554.716 230.121 554.795 232.063 554.274C233.945 553.786 235.59 552.693 236.999 550.994C238.394 549.342 239.479 547.165 240.253 544.463C241.041 541.713 241.28 539.269 240.971 537.129C240.601 535.023 239.7 533.251 238.267 531.815C236.786 530.366 234.792 529.282 232.282 528.564C229.772 527.845 227.743 527.777 226.193 528.359C224.629 528.989 223.586 530.126 223.063 531.772L232.296 534.415L229.159 545.364L204.798 538.391C206.912 528.328 210.57 521.553 215.77 518.067C220.909 514.614 227.598 514.067 235.836 516.425ZM208.22 508.784L191.459 541.749L179.278 535.552L196.039 502.587L208.22 508.784ZM189.368 515.707L183.821 528.735C181.978 530.84 179.963 532.249 177.777 532.962C175.568 533.72 173.432 533.574 171.369 532.524C170.228 531.943 169.286 531.133 168.545 530.092C167.737 529.072 167.305 527.857 167.249 526.445C167.127 525.055 167.513 523.481 168.407 521.723C169.592 519.394 171.056 517.981 172.8 517.485C174.5 516.967 176.118 517.099 177.654 517.88C178.664 518.394 179.453 518.961 180.021 519.582C180.523 520.225 181.126 520.725 181.828 521.082C183.013 521.685 184.27 521.55 185.598 520.677C186.86 519.825 188.116 518.168 189.368 515.707ZM169.602 509.109C167.244 512.27 164.544 514.531 161.503 515.89C158.422 517.22 155.171 517.623 151.752 517.1C148.293 516.548 144.847 514.989 141.413 512.425C138.059 509.92 135.63 507.122 134.126 504.03C132.593 500.977 131.991 497.789 132.319 494.465C132.648 491.141 134.021 487.859 136.438 484.618C138.737 481.536 141.423 479.295 144.494 477.896C147.535 476.537 150.785 476.134 154.244 476.686C157.664 477.209 161.11 478.767 164.583 481.361C167.859 483.807 170.283 486.571 171.855 489.653C173.398 492.775 174.005 495.997 173.677 499.321C173.319 502.684 171.961 505.947 169.602 509.109ZM158.015 500.547C158.958 499.283 159.572 498.048 159.855 496.845C160.099 495.612 160.023 494.478 159.627 493.444C159.231 492.409 158.579 491.553 157.671 490.875C156.684 490.139 155.639 489.727 154.536 489.642C153.403 489.595 152.28 489.865 151.168 490.45C150.016 491.005 148.939 491.954 147.937 493.298C146.994 494.563 146.415 495.792 146.201 496.986C145.917 498.19 145.974 499.308 146.37 500.343C146.766 501.377 147.437 502.248 148.385 502.955C149.332 503.662 150.392 504.054 151.564 504.13C152.668 504.215 153.775 503.966 154.888 503.381C156 502.796 157.042 501.852 158.015 500.547ZM132.232 452.083C136.561 456.869 138.618 461.421 138.402 465.738C138.117 470.052 135.892 474.096 131.728 477.87L116.769 491.427L107.599 481.289L122.502 467.782C123.89 466.524 124.669 465.254 124.837 463.97C124.937 462.684 124.424 461.419 123.301 460.177C122.21 458.972 121.02 458.355 119.732 458.326C118.406 458.331 117.049 458.962 115.661 460.22L100.758 473.727L91.6368 463.643L106.595 450.087C110.759 446.313 115 444.497 119.317 444.64C123.598 444.816 127.903 447.297 132.232 452.083ZM127.952 426.085L83.5832 452.725L76.5582 440.994L120.927 414.354L127.952 426.085ZM84.3278 438.139C81.2356 438.732 78.4775 438.491 76.0537 437.418C73.6299 436.344 71.6838 434.582 70.2155 432.13C68.7219 429.636 68.0352 427.002 68.1553 424.229C68.2754 421.456 69.2402 418.75 71.0498 416.112C72.7918 413.456 75.4164 411.076 78.9236 408.97C82.2618 406.966 85.5192 405.786 88.6958 405.43C91.8725 405.075 94.7782 405.514 97.4131 406.748C100.006 408.008 102.112 409.99 103.732 412.695C105.277 415.274 105.963 417.764 105.793 420.165C105.555 422.55 104.548 424.706 102.773 426.634L93.7986 430.643C94.855 430.008 95.6918 429.247 96.3091 428.359C96.8588 427.455 97.1509 426.503 97.1853 425.506C97.1944 424.466 96.9079 423.46 96.3256 422.487C95.6927 421.431 94.8738 420.687 93.8688 420.256C92.8385 419.782 91.6897 419.639 90.4224 419.825C89.1298 419.969 87.8285 420.434 86.5186 421.22C85.1664 422.032 84.1309 422.941 83.4122 423.948C82.6935 424.954 82.3211 426.011 82.295 427.118C82.2266 428.251 82.5089 429.346 83.1418 430.403C84.0279 431.883 85.2438 432.762 86.7895 433.041C88.3353 433.319 89.9533 432.951 91.6435 431.937L84.3278 438.139ZM85.0845 375.608L45.8718 385.13C42.5203 385.944 39.7561 385.728 37.5794 384.481C35.3547 383.246 33.9067 381.239 33.2351 378.46C32.7836 376.592 32.8637 374.721 33.4755 372.848C34.0278 370.938 35.3099 368.902 37.3218 366.74L60.5652 341.162L62.4178 347.255L28.5197 355.487L25.1852 341.689L74.0215 329.83L77.4428 343.987L49.3698 375.379L47.6363 370.094L81.7499 361.81L85.0845 375.608ZM54.9235 325.52C50.9837 325.605 47.5441 324.866 44.6047 323.302C41.6643 321.689 39.3498 319.372 37.6612 316.351C35.9716 313.281 35.0823 309.601 34.9933 305.313C34.9064 301.124 35.6192 297.484 37.1318 294.394C38.5951 291.305 40.737 288.867 43.5576 287.08C46.3782 285.293 49.8077 284.357 53.8461 284.269C57.6874 284.186 61.1024 284.926 64.0911 286.489C67.0304 288.053 69.3449 290.37 71.0345 293.44C72.7231 296.461 73.6124 300.14 73.7024 304.478C73.7873 308.569 73.0986 312.184 71.6363 315.322C70.1248 318.461 67.9587 320.924 65.1381 322.711C62.2682 324.499 58.8634 325.435 54.9235 325.52ZM54.5506 311.104C56.1265 311.07 57.4757 310.795 58.5982 310.277C59.7197 309.711 60.5662 308.953 61.1377 308.004C61.7093 307.054 61.9833 306.013 61.9598 304.879C61.9342 303.647 61.6162 302.569 61.0058 301.645C60.3462 300.723 59.4444 300.002 58.3004 299.485C57.1554 298.918 55.7457 298.652 54.0713 298.688C52.4953 298.722 51.1713 299.022 50.0991 299.588C48.9766 300.105 48.1296 300.838 47.558 301.787C46.9865 302.737 46.713 303.803 46.7375 304.986C46.762 306.169 47.1046 307.246 47.7653 308.218C48.3757 309.142 49.2529 309.863 50.3969 310.38C51.5408 310.898 52.9254 311.14 54.5506 311.104ZM83.28 234.361L64.329 230.073C62.4074 229.639 60.9457 229.737 59.9438 230.37C58.8939 230.992 58.2436 231.856 57.9929 232.962C57.7968 233.828 57.8517 234.699 58.1577 235.578C58.4637 236.456 59.0186 237.238 59.8224 237.926C60.5781 238.602 61.6525 239.098 63.0456 239.413L52.3171 240.626C50.5545 239.267 49.1882 237.719 48.2181 235.983C47.2589 234.199 46.6632 232.37 46.4311 230.498C46.1617 228.566 46.2341 226.687 46.6483 224.86C47.1713 222.551 48.1684 220.603 49.6393 219.015C51.0622 217.416 52.9744 216.332 55.3759 215.763C57.7402 215.135 60.6758 215.218 64.1826 216.011L86.3042 221.016L83.28 234.361ZM73.0961 279.299L37.0675 271.148L40.0916 257.803L76.1202 265.955L73.0961 279.299ZM78.1799 256.866L59.2288 252.579C57.3073 252.144 55.8456 252.243 54.8437 252.876C53.8046 253.449 53.1543 254.313 52.8928 255.467C52.7075 256.285 52.7679 257.133 53.0739 258.011C53.38 258.889 53.9348 259.672 54.7386 260.359C55.4943 261.036 56.5687 261.531 57.9618 261.847L47.6746 261.112C45.8685 259.945 44.4423 258.661 43.3959 257.262C42.3604 255.814 41.7048 254.25 41.429 252.57C41.1161 250.831 41.1722 249.024 41.5972 247.149C42.1312 244.792 43.1042 242.839 44.5162 241.288C45.9391 239.688 47.8458 238.629 50.2364 238.108C52.5789 237.576 55.4796 237.702 58.9383 238.484L81.204 243.522L78.1799 256.866ZM95.8135 182.819C93.9455 186.068 91.617 188.141 88.828 189.039C85.9963 189.913 83.0864 189.49 80.0982 187.77C77.0246 186.001 75.1748 183.685 74.5487 180.822C73.9226 177.958 74.5436 174.902 76.4116 171.654C78.2796 168.405 80.6204 166.31 83.4339 165.369C86.2475 164.429 89.1911 164.843 92.2647 166.611C95.2529 168.331 97.0691 170.656 97.7133 173.587C98.3148 176.493 97.6815 179.57 95.8135 182.819Z" fill="white"/>
</g>
<defs>
<clipPath id="clip0_69_833">
<rect width="600" height="600" fill="white"/>
</clipPath>
</defs>
</svg>
